<?xml version="1.0" encoding="utf-8"?>
<!-- Generator: Adobe Illustrator 24.0.0, SVG Export Plug-In . SVG Version: 6.00 Build 0)  -->
<svg version="1.1" id="Layer_1" xmlns:serif="http://www.serif.com/"
	 xmlns="http://www.w3.org/2000/svg" xmlns:xlink="http://www.w3.org/1999/xlink" x="0px" y="0px" viewBox="0 0 188.1 152.8"
	 style="enable-background:new 0 0 188.1 152.8;" xml:space="preserve">
<style type="text/css">
	.st0{fill:none;}
	.st1{fill:#FFFFFF;}
	.st2{fill:#265787;}
	.st3{fill:#EA7600;}
</style>
<g transform="matrix(1,0,0,1,-7.78614,0)">
	<g id="blender_logo_no_socket" transform="matrix(1,0,0,0.835201,7.78614,-42.9907)">
		<rect x="-3.5" y="45.3" class="st0" width="612" height="196.8"/>
		<g transform="matrix(4.16667,0,0,4.98882,-191.107,2195.04)">
			<g transform="matrix(5.19226,0,0,5.19226,-1154.33,1375.29)">
				<path class="st1" d="M234.6-343.7c0-0.6,0.3-1.1,0.7-1.4c0.4-0.3,1-0.6,1.6-0.6c0.6,0,1.2,0.2,1.6,0.6c0.4,0.4,0.7,0.9,0.7,1.4
					c0,0.6-0.2,1.1-0.6,1.5c-0.4,0.4-1,0.7-1.7,0.7c-0.7,0-1.3-0.3-1.7-0.7C234.8-342.6,234.5-343.1,234.6-343.7z"/>
			</g>
			<g transform="matrix(2.66418,0,0,2.66418,-520.324,532.513)">
				<path class="st2" d="M221.4-353.4c0-0.6,0.3-1.1,0.7-1.4c0.4-0.3,1-0.6,1.6-0.6c0.6,0,1.2,0.2,1.6,0.6c0.4,0.4,0.7,0.9,0.7,1.4
					c0,0.6-0.2,1.1-0.6,1.5c-0.4,0.4-1,0.7-1.7,0.7c-0.7,0-1.3-0.3-1.7-0.7C221.6-352.3,221.3-352.8,221.4-353.4z"/>
			</g>
			<g transform="matrix(2.66418,0,0,2.66418,-520.324,532.513)">
				<path class="st3" d="M217.7-352.3c0,0.2,0.1,0.7,0.2,1c0.2,0.7,0.6,1.4,1.1,1.9c0.5,0.6,1.2,1.1,2,1.4c0.8,0.4,1.7,0.5,2.6,0.5
					c0.9,0,1.8-0.2,2.6-0.5c0.8-0.3,1.4-0.8,2-1.4c0.5-0.6,0.9-1.2,1.1-2c0.1-0.4,0.2-0.7,0.2-1.1c0-0.4,0-0.7,0-1.1
					c-0.1-0.7-0.3-1.4-0.7-2c-0.3-0.6-0.8-1-1.3-1.4l0,0l-5.3-4.1c0,0,0,0,0,0c-0.3-0.3-0.9-0.3-1.3,0c-0.4,0.3-0.4,0.7-0.1,1l0,0
					l2.2,1.8l-6.7,0h0c-0.6,0-1.1,0.4-1.2,0.8c-0.1,0.5,0.3,0.9,0.8,0.9l0,0l3.4,0l-6.1,4.7c0,0,0,0,0,0c-0.6,0.4-0.8,1.2-0.4,1.6
					c0.4,0.5,1.1,0.5,1.7,0l3.3-2.7C217.8-352.9,217.7-352.5,217.7-352.3z M226.2-351c-0.7,0.7-1.6,1.1-2.7,1.1c-1,0-2-0.4-2.7-1.1
					c-0.3-0.3-0.6-0.7-0.7-1.1c-0.1-0.4-0.2-0.8-0.2-1.3c0-0.4,0.2-0.8,0.4-1.2c0.2-0.4,0.5-0.7,0.8-1c0.7-0.5,1.5-0.8,2.4-0.8
					c0.9,0,1.7,0.3,2.4,0.8c0.3,0.3,0.6,0.6,0.8,1c0.2,0.4,0.3,0.8,0.4,1.2c0,0.4,0,0.9-0.2,1.3C226.8-351.8,226.6-351.4,226.2-351z
					"/>
			</g>
		</g>
	</g>
</g>
</svg>
