<svg
        version="1.1"
        x="0px"
        y="0px"
        viewBox="0 0 320.2 89"
        style="enable-background: new 0 0 320.2 89;"
        xml:space="preserve"
      >
        <path
          id="initial"
          class="st0"
          d="M0,0v89h89V0H0z M79.8,47.1c0,10.3-3.1,18.2-9.3,23.9c-6.2,5.7-14.9,8.5-26,8.5 c-11.1,0-19.8-2.8-26-8.5c-6.2-5.7-9.3-13.7-9.3-23.9V9.4h24.4v37c0,5,0.9,8.7,2.8,11c1.9,2.3,4.6,3.4,8.2,3.4 c3.6,0,6.3-1.1,8.2-3.4c1.9-2.3,2.8-5.9,2.8-11v-37h24V47.1z"
        />
        <path
          id="U"
          d="M105.9,50c-3.9-3.7-5.8-9-5.8-15.8V9.4h15.2v24.4c0,3.3,0.6,5.7,1.8,7.2c1.2,1.5,2.9,2.3,5.1,2.3s3.9-0.8,5.1-2.3 c1.2-1.5,1.8-3.9,1.8-7.2V9.4h15v24.9c0,6.8-1.9,12-5.8,15.8c-3.9,3.7-9.3,5.6-16.2,5.6C115.1,55.6,109.7,53.7,105.9,50z"
        />
        <path id="L" d="M151.1,9.4h15.2v33.4h20.4v11.8h-35.6V9.4z" />
        <path id="T" d="M196.5,21.2h-13.2V9.4H225v11.8h-13.2v33.4h-15.2V21.2z" />
        <path
          id="R"
          d="M248.3,43.2h-4.1v11.4h-15.2V9.4h21.8c4.2,0,7.8,0.7,10.9,2.1c3.1,1.4,5.5,3.4,7.2,5.9c1.7,2.6,2.5,5.6,2.5,9c0,3.2-0.7,6-2.2,8.5c-1.5,2.4-3.6,4.3-6.3,5.7l9.5,13.9H256L248.3,43.2z M254.4,22.5c-1-0.9-2.6-1.4-4.6-1.4h-5.6v10.6h5.6 c2.1,0,3.6-0.5,4.6-1.4s1.6-2.2,1.6-3.9C255.9,24.7,255.4,23.4,254.4,22.5z"
        />
        <path
          id="_x24_"
          d="M320.2,46.8h-6v7.7h-14.8v-7.7h-23.4v-9.7l19.2-27.7h15.6l-17,25.6h6.1v-6.9h14.3V35h6V46.8z"
        />
        <g
          id="strapline"
        >
          <path
            id="_x2D_w"
            d="M121,65.4l-4.7,14.1h-2.1l-3.8-11.2l-3.8,11.2h-2.2l-4.7-14.1h2.1l3.8,11.4l4-11.4h1.8l3.9,11.5l3.9-11.5H121z"
          />
          <path id="_x2D_e" d="M133.7,77.7v1.7h-10.2V65.4h9.9v1.7h-7.9v4.3h7.1v1.7h-7.1v4.5H133.7z" />
          <path
            id="_x2D_b"
            d="M148.3,73.4c0.5,0.6,0.7,1.4,0.7,2.3c0,1.2-0.5,2.2-1.4,2.8c-0.9,0.7-2.3,1-4,1h-6.7V65.4h6.3 c1.6,0,2.9,0.3,3.7,1c0.9,0.6,1.3,1.5,1.3,2.7c0,0.7-0.2,1.4-0.5,1.9c-0.3,0.5-0.8,0.9-1.4,1.2C147.2,72.4,147.8,72.8,148.3,73.4z M138.9,67v4.5h4.1c1,0,1.8-0.2,2.4-0.6c0.6-0.4,0.8-0.9,0.8-1.7c0-0.7-0.3-1.3-0.8-1.7c-0.6-0.4-1.4-0.6-2.4-0.6H138.9z M146.1,77.3c0.6-0.4,0.9-1,0.9-1.8c0-1.6-1.1-2.4-3.4-2.4h-4.6v4.7h4.6C144.7,77.8,145.5,77.7,146.1,77.3z"
          />
          <path
            id="_x2D_d"
            d="M157.5,65.4h5.9c1.5,0,2.8,0.3,4,0.9c1.2,0.6,2,1.4,2.7,2.5c0.6,1.1,1,2.3,1,3.7s-0.3,2.6-1,3.7 c-0.6,1.1-1.5,1.9-2.7,2.5c-1.2,0.6-2.5,0.9-4,0.9h-5.9V65.4z M163.3,77.7c1.1,0,2.1-0.2,3-0.7c0.9-0.4,1.5-1.1,2-1.9 c0.5-0.8,0.7-1.7,0.7-2.8s-0.2-2-0.7-2.8c-0.5-0.8-1.1-1.4-2-1.9c-0.9-0.4-1.9-0.7-3-0.7h-3.8v10.6H163.3z"
          />
          <path id="_x2D_-e" d="M184.3,77.7v1.7h-10.2V65.4h9.9v1.7h-7.9v4.3h7.1v1.7h-7.1v4.5H184.3z" />
          <path
            id="_x2D_s"
            d="M188.6,79.1c-1-0.3-1.8-0.8-2.3-1.3l0.7-1.6c0.5,0.5,1.2,0.9,2.1,1.2c0.8,0.3,1.7,0.5,2.6,0.5 c1.2,0,2-0.2,2.6-0.6c0.6-0.4,0.9-0.9,0.9-1.6c0-0.5-0.2-0.9-0.5-1.2s-0.7-0.5-1.2-0.7c-0.5-0.2-1.1-0.3-2-0.5 c-1.1-0.3-1.9-0.5-2.6-0.8c-0.6-0.3-1.2-0.6-1.7-1.2c-0.5-0.5-0.7-1.2-0.7-2.1c0-0.7,0.2-1.4,0.6-2c0.4-0.6,1-1.1,1.8-1.4 c0.8-0.4,1.8-0.5,3-0.5c0.8,0,1.6,0.1,2.5,0.3s1.5,0.5,2.1,0.9l-0.7,1.6c-0.6-0.4-1.2-0.7-1.9-0.9c-0.7-0.2-1.3-0.3-2-0.3 c-1.1,0-2,0.2-2.6,0.6c-0.6,0.4-0.9,1-0.9,1.6c0,0.5,0.2,0.9,0.5,1.2c0.3,0.3,0.7,0.5,1.2,0.7c0.5,0.2,1.1,0.3,1.9,0.5 c1.1,0.3,1.9,0.5,2.6,0.8c0.6,0.3,1.2,0.6,1.7,1.2c0.5,0.5,0.7,1.2,0.7,2.1c0,0.7-0.2,1.4-0.6,2c-0.4,0.6-1,1.1-1.8,1.4 c-0.8,0.4-1.8,0.5-3,0.5C190.6,79.6,189.6,79.5,188.6,79.1z"
          />
          <path id="_x2D_i" d="M200.1,65.4h2v14.1h-2V65.4z" />
          <path
            id="_x2D_g"
            d="M216,72.4h1.9v5.5c-0.7,0.6-1.5,1-2.4,1.3s-1.9,0.5-2.9,0.5c-1.4,0-2.7-0.3-3.8-0.9c-1.1-0.6-2-1.5-2.7-2.6 c-0.6-1.1-1-2.3-1-3.7c0-1.4,0.3-2.6,1-3.7c0.6-1.1,1.5-2,2.7-2.6c1.1-0.6,2.4-0.9,3.9-0.9c1.1,0,2.1,0.2,3.1,0.6 c0.9,0.4,1.7,0.9,2.3,1.6l-1.2,1.2c-1.1-1.1-2.5-1.6-4.1-1.6c-1.1,0-2,0.2-2.9,0.7c-0.9,0.5-1.5,1.1-2,1.9 c-0.5,0.8-0.7,1.8-0.7,2.8c0,1,0.2,1.9,0.7,2.8c0.5,0.8,1.1,1.5,2,1.9c0.9,0.5,1.8,0.7,2.9,0.7c1.3,0,2.4-0.3,3.3-0.9V72.4z"
          />
          <path id="_x2D_n" d="M233.9,65.4v14.1h-1.6L223.8,69v10.5h-2V65.4h1.6l8.4,10.5V65.4H233.9z" />
          <path
            id="_x2D_-s"
            d="M244.6,79.1c-1-0.3-1.8-0.8-2.3-1.3l0.7-1.6c0.5,0.5,1.2,0.9,2.1,1.2c0.8,0.3,1.7,0.5,2.6,0.5 c1.2,0,2-0.2,2.6-0.6c0.6-0.4,0.9-0.9,0.9-1.6c0-0.5-0.2-0.9-0.5-1.2s-0.7-0.5-1.2-0.7c-0.5-0.2-1.1-0.3-2-0.5 c-1.1-0.3-1.9-0.5-2.6-0.8c-0.6-0.3-1.2-0.6-1.7-1.2c-0.5-0.5-0.7-1.2-0.7-2.1c0-0.7,0.2-1.4,0.6-2c0.4-0.6,1-1.1,1.8-1.4 c0.8-0.4,1.8-0.5,3-0.5c0.8,0,1.6,0.1,2.5,0.3s1.5,0.5,2.1,0.9l-0.7,1.6c-0.6-0.4-1.2-0.7-1.9-0.9c-0.7-0.2-1.3-0.3-2-0.3 c-1.1,0-2,0.2-2.6,0.6c-0.6,0.4-0.9,1-0.9,1.6c0,0.5,0.2,0.9,0.5,1.2c0.3,0.3,0.7,0.5,1.2,0.7c0.5,0.2,1.1,0.3,1.9,0.5 c1.1,0.3,1.9,0.5,2.6,0.8c0.6,0.3,1.2,0.6,1.7,1.2c0.5,0.5,0.7,1.2,0.7,2.1c0,0.7-0.2,1.4-0.6,2c-0.4,0.6-1,1.1-1.8,1.4 c-0.8,0.4-1.8,0.5-3,0.5C246.6,79.6,245.5,79.5,244.6,79.1z"
          />
          <path id="_x2D_t" d="M258.6,67.2h-4.8v-1.7h11.6v1.7h-4.8v12.3h-2V67.2z" />
          <path
            id="_x2D_u"
            d="M268.8,78c-1-1.1-1.6-2.6-1.6-4.6v-8h2v7.9c0,3,1.3,4.5,4,4.5c1.3,0,2.3-0.4,3-1.1c0.7-0.7,1-1.9,1-3.4v-7.9 h1.9v8c0,2-0.5,3.6-1.6,4.6c-1,1.1-2.5,1.6-4.4,1.6C271.3,79.6,269.8,79.1,268.8,78z"
          />
          <path
            id="_x2D_-d"
            d="M283.2,65.4h5.9c1.5,0,2.8,0.3,4,0.9c1.2,0.6,2,1.4,2.7,2.5c0.6,1.1,1,2.3,1,3.7s-0.3,2.6-1,3.7 c-0.6,1.1-1.5,1.9-2.7,2.5c-1.2,0.6-2.5,0.9-4,0.9h-5.9V65.4z M289,77.7c1.1,0,2.1-0.2,3-0.7c0.9-0.4,1.5-1.1,2-1.9 c0.5-0.8,0.7-1.7,0.7-2.8s-0.2-2-0.7-2.8c-0.5-0.8-1.1-1.4-2-1.9c-0.9-0.4-1.9-0.7-3-0.7h-3.8v10.6H289z"
          />
          <path id="_x2D_-i" d="M299.8,65.4h2v14.1h-2V65.4z" />
          <path
            id="_x2D_o"
            d="M308.6,78.7c-1.1-0.6-2-1.5-2.7-2.6s-1-2.3-1-3.7s0.3-2.6,1-3.7c0.6-1.1,1.5-2,2.7-2.6 c1.1-0.6,2.4-0.9,3.8-0.9c1.4,0,2.7,0.3,3.8,0.9c1.1,0.6,2,1.5,2.7,2.6s1,2.3,1,3.7c0,1.4-0.3,2.6-1,3.7c-0.6,1.1-1.5,1.9-2.7,2.6 c-1.1,0.6-2.4,0.9-3.8,0.9C311,79.6,309.7,79.3,308.6,78.7z M315.2,77.1c0.8-0.5,1.5-1.1,1.9-1.9c0.5-0.8,0.7-1.7,0.7-2.8 c0-1-0.2-1.9-0.7-2.8c-0.5-0.8-1.1-1.5-1.9-1.9c-0.8-0.5-1.8-0.7-2.8-0.7s-2,0.2-2.8,0.7c-0.8,0.5-1.5,1.1-2,1.9 c-0.5,0.8-0.7,1.7-0.7,2.8c0,1,0.2,1.9,0.7,2.8c0.5,0.8,1.1,1.5,2,1.9c0.8,0.5,1.8,0.7,2.8,0.7S314.4,77.6,315.2,77.1z"
          />
        </g>
      </svg>