<?xml version="1.0" encoding="utf-8"?>
<!-- Generator: Adobe Illustrator 24.0.0, SVG Export Plug-In . SVG Version: 6.00 Build 0)  -->
<svg version="1.1" id="Layer_1" xmlns="http://www.w3.org/2000/svg" xmlns:xlink="http://www.w3.org/1999/xlink" x="0px" y="0px"
	 viewBox="0 0 195.8 195.8" style="enable-background:new 0 0 195.8 195.8;" xml:space="preserve">
<style type="text/css">
	.st0{fill:#FFFFFF;}
</style>
<path id="initial" class="st0" d="M0,0v195.8h195.8V0H0z M175.6,103.6c0,22.7-6.8,40-20.5,52.6c-13.6,12.5-32.8,18.7-57.2,18.7
	s-43.6-6.2-57.2-18.7c-13.6-12.5-20.5-30.1-20.5-52.6V20.7h53.7v81.4c0,11,2,19.1,6.2,24.2c4.2,5.1,10.1,7.5,18,7.5s13.9-2.4,18-7.5
	c4.2-5.1,6.2-13,6.2-24.2V20.7h52.8v82.9H175.6z"/>
</svg>
