<?xml version="1.0" encoding="utf-8"?>
<!-- Generator: Adobe Illustrator 24.0.0, SVG Export Plug-In . SVG Version: 6.00 Build 0)  -->
<svg version="1.1" id="Layer_1" xmlns="http://www.w3.org/2000/svg" xmlns:xlink="http://www.w3.org/1999/xlink" x="0px" y="0px"
	 viewBox="0 0 320.7 89" style="enable-background:new 0 0 320.7 89;" xml:space="preserve">
<path d="M0,0v89h89V0H0z M79.1,47.2c0,10.8-3,19-9.2,25C63.8,78,55.3,81,44.3,81c-11.1-0.2-19.6-3.2-25.6-9
	c-6.2-5.9-9.2-14.2-9.2-25V7.8h24v38.6c0,5.2,0.9,9,2.8,11.4c1.9,2.4,4.6,3.6,8.1,3.6c3.5,0,6.2-1.3,8.1-3.6
	c1.9-2.4,2.8-6.2,2.8-11.4V7.8h23.7V47.2z"/>
<g>
	<path id="U" d="M106.4,50.1c-3.9-3.7-5.8-9-5.8-15.8V9.5h15.2v24.4c0,3.3,0.6,5.7,1.8,7.2c1.2,1.5,2.9,2.3,5.1,2.3s3.9-0.8,5.1-2.3
		c1.2-1.5,1.8-3.9,1.8-7.2V9.5h15v24.9c0,6.8-1.9,12-5.8,15.8c-3.9,3.7-9.3,5.6-16.2,5.6C115.6,55.7,110.2,53.8,106.4,50.1z"/>
	<path id="L" d="M151.6,9.5h15.2v33.4h20.4v11.8h-35.6V9.5z"/>
	<path id="T" d="M197,21.3h-13.2V9.5h41.7v11.8h-13.2v33.4h-15.2V21.3H197z"/>
	<path id="R" d="M248.8,43.3h-4.1v11.4h-15.2V9.5h21.8c4.2,0,7.8,0.7,10.9,2.1s5.5,3.4,7.2,5.9c1.7,2.6,2.5,5.6,2.5,9
		c0,3.2-0.7,6-2.2,8.5c-1.5,2.4-3.6,4.3-6.3,5.7l9.5,13.9h-16.4L248.8,43.3z M254.9,22.6c-1-0.9-2.6-1.4-4.6-1.4h-5.6v10.6h5.6
		c2.1,0,3.6-0.5,4.6-1.4s1.6-2.2,1.6-3.9C256.4,24.8,255.9,23.5,254.9,22.6z"/>
	<path id="_x24_" d="M320.7,46.9h-6v7.7h-14.8v-7.7h-23.4v-9.7l19.2-27.7h15.6l-17,25.6h6.1v-6.9h14.3v6.9h6L320.7,46.9L320.7,46.9z
		"/>
	<g>
		<path d="M100.4,64.8h6.6c1.6,0,3,0.3,4.2,0.9s2.1,1.4,2.8,2.5c0.7,1.1,1,2.4,1,3.8s-0.3,2.7-1,3.8c-0.7,1.1-1.6,1.9-2.8,2.5
			c-1.2,0.6-2.6,0.9-4.2,0.9h-6.6V64.8z M106.8,76.5c1.4,0,2.6-0.4,3.5-1.2s1.3-1.9,1.3-3.3c0-1.4-0.4-2.5-1.3-3.3
			c-0.9-0.8-2-1.2-3.5-1.2h-3.1v9H106.8z"/>
		<path d="M117.5,64.8h3.3v14.4h-3.3V64.8z"/>
		<path d="M134,71.8h3.1v5.9c-0.8,0.6-1.7,1-2.7,1.4c-1,0.3-2.1,0.5-3.1,0.5c-1.5,0-2.8-0.3-4-1c-1.2-0.6-2.1-1.5-2.8-2.7
			c-0.7-1.1-1-2.4-1-3.8c0-1.4,0.3-2.7,1-3.8c0.7-1.1,1.6-2,2.8-2.7c1.2-0.6,2.6-1,4.1-1c1.3,0,2.4,0.2,3.4,0.6c1,0.4,1.9,1,2.6,1.9
			l-2.1,2c-1-1.1-2.3-1.6-3.7-1.6c-0.9,0-1.7,0.2-2.5,0.6c-0.7,0.4-1.3,0.9-1.7,1.6c-0.4,0.7-0.6,1.5-0.6,2.4c0,0.9,0.2,1.7,0.6,2.4
			c0.4,0.7,1,1.2,1.7,1.6s1.5,0.6,2.4,0.6c1,0,1.8-0.2,2.6-0.6V71.8z"/>
		<path d="M140.1,64.8h3.3v14.4h-3.3V64.8z"/>
		<path d="M149.9,67.5h-4.6v-2.7h12.6v2.7h-4.6v11.7h-3.3V67.5z"/>
		<path d="M168.5,76.2h-6.7l-1.3,3.1H157l6.4-14.4h3.3l6.5,14.4h-3.5L168.5,76.2z M167.4,73.6l-2.3-5.5l-2.3,5.5H167.4z"/>
		<path d="M174.7,64.8h3.3v11.7h7.2v2.7h-10.6V64.8z"/>
		<path d="M193,64.8h6.6c1.6,0,3,0.3,4.2,0.9c1.2,0.6,2.1,1.4,2.8,2.5c0.7,1.1,1,2.4,1,3.8s-0.3,2.7-1,3.8c-0.7,1.1-1.6,1.9-2.8,2.5
			c-1.2,0.6-2.6,0.9-4.2,0.9H193V64.8z M199.4,76.5c1.4,0,2.6-0.4,3.5-1.2s1.3-1.9,1.3-3.3c0-1.4-0.4-2.5-1.3-3.3
			c-0.9-0.8-2-1.2-3.5-1.2h-3.1v9H199.4z"/>
		<path d="M221.3,76.6v2.7h-11.2V64.8H221v2.7h-7.6v3.1h6.7v2.6h-6.7v3.3H221.3z"/>
		<path d="M225.4,79c-1.1-0.3-1.9-0.7-2.6-1.2l1.1-2.5c0.6,0.5,1.4,0.8,2.2,1.1c0.9,0.3,1.7,0.4,2.6,0.4c0.9,0,1.7-0.1,2.1-0.4
			c0.5-0.3,0.7-0.7,0.7-1.1c0-0.3-0.1-0.6-0.4-0.9s-0.6-0.4-1-0.5c-0.4-0.1-1-0.3-1.7-0.5c-1.1-0.3-2-0.5-2.7-0.8
			c-0.7-0.3-1.3-0.7-1.8-1.3c-0.5-0.6-0.8-1.3-0.8-2.3c0-0.8,0.2-1.6,0.7-2.3c0.5-0.7,1.1-1.2,2.1-1.6c0.9-0.4,2-0.6,3.4-0.6
			c0.9,0,1.8,0.1,2.7,0.3c0.9,0.2,1.7,0.5,2.3,0.9l-1,2.5c-1.3-0.8-2.7-1.1-4-1.1c-0.9,0-1.6,0.2-2.1,0.5c-0.4,0.3-0.7,0.7-0.7,1.2
			s0.3,0.9,0.8,1.1c0.5,0.2,1.3,0.5,2.4,0.7c1.1,0.3,2,0.5,2.7,0.8c0.7,0.3,1.3,0.7,1.8,1.2c0.5,0.6,0.8,1.3,0.8,2.3
			c0,0.8-0.2,1.6-0.7,2.3c-0.5,0.7-1.2,1.2-2.1,1.6s-2,0.6-3.4,0.6C227.5,79.5,226.4,79.3,225.4,79z"/>
		<path d="M237.1,64.8h3.3v14.4h-3.3V64.8z"/>
		<path d="M253.6,71.8h3.1v5.9c-0.8,0.6-1.7,1-2.7,1.4c-1,0.3-2.1,0.5-3.1,0.5c-1.5,0-2.8-0.3-4-1c-1.2-0.6-2.1-1.5-2.8-2.7
			c-0.7-1.1-1-2.4-1-3.8c0-1.4,0.3-2.7,1-3.8c0.7-1.1,1.6-2,2.8-2.7c1.2-0.6,2.6-1,4.1-1c1.3,0,2.4,0.2,3.4,0.6c1,0.4,1.9,1,2.6,1.9
			l-2.1,2c-1-1.1-2.3-1.6-3.7-1.6c-0.9,0-1.7,0.2-2.5,0.6c-0.7,0.4-1.3,0.9-1.7,1.6c-0.4,0.7-0.6,1.5-0.6,2.4c0,0.9,0.2,1.7,0.6,2.4
			c0.4,0.7,1,1.2,1.7,1.6s1.5,0.6,2.4,0.6c1,0,1.8-0.2,2.6-0.6V71.8z"/>
		<path d="M273,64.8v14.4h-2.7l-7.2-8.8v8.8h-3.3V64.8h2.8l7.2,8.8v-8.8H273z"/>
	</g>
</g>
</svg>
