<?xml version="1.0" encoding="UTF-8"?>
<!-- Created with Inkscape (http://www.inkscape.org/) -->
<svg width="374.55" height="148.4" version="1.1" viewBox="0 0 374.55 148.4" xmlns="http://www.w3.org/2000/svg">
 <defs>
  <clipPath id="clipPath1791">
   <path d="m0 768h1366v-768h-1366z"/>
  </clipPath>
 </defs>
 <g transform="matrix(1.3333 0 0 -1.3333 -720.42 586.2)">
  <g clip-path="url(#clipPath1791)">
   <g transform="translate(796.49 397)">
    <path d="m0 0-13.204-44.959c-0.213-0.742-0.635-1.113-1.272-1.113h-0.955c-0.634 0-1.06 0.371-1.271 1.113l-26.395 78.387c-1.166 3.391-2.677 5.776-4.531 7.155-1.855 1.376-4.531 2.067-8.029 2.067h-15.74c-2.864 0-5.249-0.636-7.157-1.908-1.906-1.272-3.445-3.712-4.609-7.314l-25.759-78.387c-0.214-0.742-0.636-1.113-1.272-1.113h-0.795c-0.742 0-1.272 1.113-1.272 1.113l-17.857 59.3s-0.626 2.436-1.002 3.585c-1.855 5.669-4.745 10.335-8.665 13.991-3.923 3.658-8.959 6.361-15.105 8.109-6.149 1.749-13.515 2.624-22.101 2.624h-74.412c-3.18 0-4.77-1.59-4.77-4.77v-17.34h26.272c0.042 2e-3 0.078 9e-3 0.122 9e-3h52.152c4.663 0 8.586-0.424 11.766-1.272 3.18-0.85 5.749-2.226 7.712-4.134 1.96-1.908 3.363-4.452 4.213-7.632 0.847-3.18 1.272-7.103 1.272-11.766v-17.49c0-4.665-0.425-8.586-1.272-11.766-0.85-3.18-2.253-5.723-4.213-7.632-1.963-1.908-4.532-3.287-7.712-4.134-3.18-0.85-7.103-1.272-11.766-1.272h-18.247v-0.051h-17.611v-22.05h36.494c8.586 0 15.952 0.875 22.101 2.624 6.146 1.749 11.182 4.452 15.105 8.108 1.846 1.723 3.454 3.676 4.843 5.844l1.375-4.492c0.74-2.44 1.51-4.452 2.305-6.041 0.795-1.59 1.722-2.838 2.783-3.737 1.058-0.902 2.25-1.511 3.577-1.829 1.324-0.317 2.887-0.477 4.691-0.477h18.126c3.074 0 5.486 0.847 7.234 2.545 1.75 1.693 3.418 4.874 5.008 9.539l25.281 75.525c0.106 0.74 0.53 1.113 1.274 1.113h0.635c0.74 0 1.166-0.373 1.273-1.113l24.963-75.525c1.59-4.665 3.258-7.846 5.008-9.539 1.748-1.698 4.158-2.545 7.234-2.545h18.604c3.072 0 5.509 0.82 7.312 2.464 1.803 1.643 3.444 4.85 4.93 9.62l18.07 56.566z"/>
   </g>
  </g>
 </g>
</svg>
