<?xml version="1.0" encoding="utf-8"?>
<!-- Generator: Adobe Illustrator 24.0.0, SVG Export Plug-In . SVG Version: 6.00 Build 0)  -->
<svg version="1.1" id="Layer_1" xmlns="http://www.w3.org/2000/svg" xmlns:xlink="http://www.w3.org/1999/xlink" x="0px" y="0px"
	 viewBox="0 0 280.9 111.3" style="enable-background:new 0 0 280.9 111.3;" xml:space="preserve">
<style type="text/css">
	.st0{fill:#FFFFFF;}
	.st1{display:none;}
</style>
<path class="st0" d="M256.2,42.6l-13.2,45c-0.2,0.7-0.6,1.1-1.3,1.1h-1c-0.6,0-1.1-0.4-1.3-1.1L213.1,9.2c-1.2-3.4-2.7-5.8-4.5-7.2
	c-1.9-1.4-4.5-2.1-8-2.1h-15.7c-2.9,0-5.2,0.6-7.2,1.9c-1.9,1.3-3.4,3.7-4.6,7.3l-25.8,78.4c-0.2,0.7-0.6,1.1-1.3,1.1h-0.8
	c-0.7,0-1.3-1.1-1.3-1.1l-17.9-59.3c0,0,0,0,0,0s-0.6-2.4-1-3.6c-1.9-5.7-4.7-10.3-8.7-14c-3.9-3.7-9-6.4-15.1-8.1
	C95.1,0.9,87.8,0,79.2,0H4.8C1.6,0,0,1.6,0,4.8v17.3h26.3c0,0,0.1,0,0.1,0h52.2c4.7,0,8.6,0.4,11.8,1.3c3.2,0.8,5.7,2.2,7.7,4.1
	c2,1.9,3.4,4.5,4.2,7.6c0.8,3.2,1.3,7.1,1.3,11.8v17.5c0,4.7-0.4,8.6-1.3,11.8c-0.8,3.2-2.3,5.7-4.2,7.6c-2,1.9-4.5,3.3-7.7,4.1
	c-3.2,0.8-7.1,1.3-11.8,1.3H60.3v0.1H42.7v22h36.5c8.6,0,16-0.9,22.1-2.6c6.1-1.7,11.2-4.5,15.1-8.1c1.8-1.7,3.5-3.7,4.8-5.8
	l1.4,4.5c0.7,2.4,1.5,4.5,2.3,6s1.7,2.8,2.8,3.7c1.1,0.9,2.3,1.5,3.6,1.8c1.3,0.3,2.9,0.5,4.7,0.5h18.1c3.1,0,5.5-0.8,7.2-2.5
	c1.8-1.7,3.4-4.9,5-9.5l25.3-75.5c0.1-0.7,0.5-1.1,1.3-1.1h0.6c0.7,0,1.2,0.4,1.3,1.1l25,75.5c1.6,4.7,3.3,7.8,5,9.5
	c1.7,1.7,4.2,2.5,7.2,2.5h18.6c3.1,0,5.5-0.8,7.3-2.5c1.8-1.6,3.4-4.8,4.9-9.6l18.1-56.6H256.2z"/>
<rect x="234.7" y="42.6" class="st1" width="45" height="3"/>
<rect x="21.7" y="86.6" transform="matrix(4.490881e-11 -1 1 4.490881e-11 -43.9623 132.3375)" class="st1" width="45" height="3"/>
</svg>
