<?xml version="1.0" encoding="utf-8"?>
<!-- Generator: Adobe Illustrator 24.0.0, SVG Export Plug-In . SVG Version: 6.00 Build 0)  -->
<svg version="1.1" xmlns="http://www.w3.org/2000/svg" xmlns:xlink="http://www.w3.org/1999/xlink" x="0px" y="0px"
	 viewBox="0 0 2503.2 2503.2" style="enable-background:new 0 0 2503.2 2503.2;" xml:space="preserve">
<style type="text/css">
	.st0{fill:#2E001E;}
	.st1{fill:#FF2BC2;}
</style>
<g id="ps_x5F_cc_x5F_app_x5F_RGB.svg">
	<path class="st0" d="M105.8,137h2291.7v2229.2H105.8V137z"/>
	<path class="st1" d="M1.6,32.9v2437.5h2500V32.9H1.6z M105.8,137h2291.7v2229.2H105.8V137z"/>
	<path class="st1" d="M1827.1,1129.7c-15.6-7.3-35.4-10.4-60.4-10.4c-131.3,0-218.8,101-218.8,268.8c0,191.7,89.6,268.8,206.3,268.8
		c25,0,52.1-3.1,71.9-11.5v-515.6H1827.1z M1360.4,1396.4c0-242.7,156.3-432.3,412.5-432.3c21.9,0,33.3,0,54.2,2.1V695.4
		c0-6.2,5.2-10.4,10.4-10.4h167.7c8.3,0,10.4,3.1,10.4,8.3v952.1c0,28.1,0,63.5,5.2,102.1c0,7.3,0,8.3-6.3,11.5
		c-87.5,41.7-179.2,60.4-266.7,60.4C1521.9,1819.3,1360.4,1679.7,1360.4,1396.4L1360.4,1396.4z M1005.2,1227.7l291.7,565.6
		c5.2,8.3,2.1,16.7-6.3,16.7h-181.3c-11.5,0-16.7-3.1-21.9-13.5c-66.7-137.5-134.4-280.2-204.2-428.1h-2.1
		C818.8,1507.9,750,1660,683.4,1797.5c-5.2,8.3-10.4,11.5-18.8,11.5H491.7c-10.4,0-11.5-8.3-6.3-14.6l285.4-549l-276-545.8
		c-6.3-8.3,0-15.6,7.3-15.6h179.2c10.4,0,15.6,2.1,18.8,11.5c65.6,138.5,132.3,275,194.8,414.6h2.1
		c60.4-137.5,127.1-276,190.6-412.5c5.2-8.3,8.3-13.5,18.8-13.5H1274c8.3,0,11.5,6.3,6.3,15.6L1005.2,1227.7L1005.2,1227.7z"/>
</g>
<g id="Layer_2">
</g>
</svg>
